<?xml version="1.0" encoding="UTF-8" standalone="no"?>
<!-- Created with Inkscape (http://www.inkscape.org/) -->

<svg
   width="25.99428"
   height="37.063934"
   viewBox="0 0 25.99428 37.063935"
   version="1.1"
   id="svg1"
   xml:space="preserve"
   inkscape:version="1.3.2 (1:1.3.2+202311252150+091e20ef0f)"
   sodipodi:docname="iconpupuk.svg"
   xmlns:inkscape="http://www.inkscape.org/namespaces/inkscape"
   xmlns:sodipodi="http://sodipodi.sourceforge.net/DTD/sodipodi-0.dtd"
   xmlns="http://www.w3.org/2000/svg"
   xmlns:svg="http://www.w3.org/2000/svg"><sodipodi:namedview
     id="namedview1"
     pagecolor="#ffffff"
     bordercolor="#000000"
     borderopacity="0.25"
     inkscape:showpageshadow="2"
     inkscape:pageopacity="0.0"
     inkscape:pagecheckerboard="0"
     inkscape:deskcolor="#d1d1d1"
     inkscape:document-units="px"
     inkscape:zoom="0.70710678"
     inkscape:cx="229.8097"
     inkscape:cy="350.72496"
     inkscape:window-width="1366"
     inkscape:window-height="717"
     inkscape:window-x="0"
     inkscape:window-y="23"
     inkscape:window-maximized="1"
     inkscape:current-layer="layer1"
     showgrid="false" /><defs
     id="defs1"><inkscape:path-effect
       effect="fillet_chamfer"
       id="path-effect5"
       is_visible="true"
       lpeversion="1"
       nodesatellites_param="F,0,1,1,0,1.5289604,0,1 @ F,0,0,1,0,1.5289604,0,1 @ F,0,1,1,0,1.5289604,0,1 @ F,0,1,1,0,1.5289604,0,1"
       radius="0"
       unit="px"
       method="auto"
       mode="F"
       chamfer_steps="1"
       flexible="false"
       use_knot_distance="true"
       apply_no_radius="true"
       apply_with_radius="true"
       only_selected="false"
       hide_knots="false" /><inkscape:path-effect
       effect="fillet_chamfer"
       id="path-effect4"
       is_visible="true"
       lpeversion="1"
       nodesatellites_param="F,0,0,1,0,0,0,1 @ F,0,1,1,0,2.9382701,0,1 @ F,0,0,1,0,2.9382701,0,1 @ F,0,0,1,0,0,0,1"
       radius="0"
       unit="px"
       method="auto"
       mode="F"
       chamfer_steps="1"
       flexible="false"
       use_knot_distance="true"
       apply_no_radius="true"
       apply_with_radius="true"
       only_selected="false"
       hide_knots="false" /><inkscape:path-effect
       effect="bend_path"
       id="path-effect20"
       is_visible="true"
       lpeversion="1"
       bendpath="m 172.02279,145.32246 c 3.05139,0.96673 5.60989,-0.13982 8.28258,-1.96112"
       prop_scale="1.0298994"
       scale_y_rel="false"
       vertical="false"
       hide_knot="false"
       bendpath-nodetypes="cc" /></defs><g
     inkscape:label="Layer 1"
     inkscape:groupmode="layer"
     id="layer1"
     transform="translate(-70.367121,-62.033094)"><path
       id="rect1"
       style="color:#000000;fill:#000000;stroke-linecap:round;stroke-linejoin:round;-inkscape-stroke:none;paint-order:stroke fill markers"
       d="m 85.042191,62.03423 c -1.00947,0.02493 -1.97196,0.45204 -2.69751,1.15032 -0.77368,-0.53811 -1.796,-0.68192 -2.76934,-0.40462 -1.01046,0.28787 -1.91843,1.01408 -2.37298,2.07067 -1.63104,0.0144 -2.67778,0.74805 -3.21686,1.53892 -0.33573,0.49255 -0.50691,0.98752 -0.59221,1.3131 -0.37286,-0.07712 -0.74526,-0.15607 -1.11414,-0.24184 -0.49754,-0.11569 -0.98573,-0.02388 -1.34359,0.25373 -0.35786,0.27756 -0.56844,0.73087 -0.56844,1.24437 v 3.79873 c 0,0.92869 0.60934,1.81664 1.47123,2.15284 -0.586,6.02318 -0.86659,12.04502 0.8046,17.84129 l -0.84905,1.58698 c -0.42651,0.79675 -0.4706,1.65052 -0.15813,2.35335 0.31247,0.70283 0.98109,1.235 1.87121,1.41593 6.42256,1.30548 13.17853,1.33116 19.71456,0.0021 0.89037,-0.18106 1.55921,-0.71541 1.87689,-1.41955 0.31767,-0.70414 0.28348,-1.56209 -0.13436,-2.36368 l -0.82063,-1.57303 c 1.67395,-5.80419 1.39062,-11.83463 0.80306,-17.8661 0.83158,-0.35272 1.4149,-1.22225 1.4149,-2.1301 v -3.79873 c 0,-0.5135 -0.21057,-0.96683 -0.56844,-1.24437 -0.35787,-0.27754 -0.84607,-0.36952 -1.34359,-0.25373 -0.14271,0.03321 -0.28688,0.06114 -0.42995,0.09301 -0.14569,-0.24278 -0.43779,-0.71562 -0.87953,-1.26607 -0.28916,-0.36032 -0.61145,-0.71088 -0.96118,-0.9586 -0.22772,-0.16128 -0.5111,-0.12902 -0.78342,-0.14469 -0.0375,-0.244 -0.07596,-0.48786 -0.22221,-0.7245 -0.19984,-0.32326 -0.48319,-0.63838 -0.83044,-0.89866 -0.63354,-0.47486 -1.52719,-0.6914 -2.4138,-0.36328 -0.81359,-0.79462 -1.85182,-1.18931 -2.88665,-1.16376 z m 0.0041,0.70642 c 0.91119,-0.02618 1.84532,0.29972 2.53266,1.04542 a 0.35003499,0.35003499 0 0 0 0.41599,0.07596 c 0.70069,-0.35738 1.37875,-0.15178 1.92805,0.25993 0.27465,0.20586 0.50421,0.46221 0.65422,0.70487 0.15002,0.24266 0.20824,0.4744 0.20103,0.57051 a 0.35003499,0.35003499 0 0 0 0.50022,0.34158 c 0.0884,-0.04251 0.24028,-0.021 0.4961,0.16019 0.25582,0.1812 0.55328,0.49383 0.8201,0.82631 0.288,0.35888 0.52567,0.71223 0.6997,0.98547 -6.35808,1.31085 -13.02531,1.31085 -19.20968,0.12764 0.07188,-0.26548 0.20686,-0.65313 0.48059,-1.05471 0.46488,-0.68202 1.25452,-1.34083 2.82257,-1.279 a 0.35003499,0.35003499 0 0 0 0.34571,-0.23667 c 0.32329,-0.93437 1.13775,-1.56029 2.03502,-1.81591 0.89727,-0.25563 1.83848,-0.11629 2.38642,0.38085 a 0.35003499,0.35003499 0 0 0 0.49609,-0.02584 c 0.59564,-0.66243 1.48401,-1.04041 2.39521,-1.0666 z m 0.79271,0.95498 c -0.32514,0.0034 -0.56069,0.06666 -0.56069,0.06666 a 0.34999999,0.34999999 0 0 0 -0.26561,0.41807 0.34999999,0.34999999 0 0 0 0.41806,0.26561 c 0,0 0.91448,-0.1422 1.26917,0.26407 a 0.34999999,0.34999999 0 0 0 0.49248,0.03307 0.34999999,0.34999999 0 0 0 0.03514,-0.49402 c -0.359,-0.41122 -0.84691,-0.5321 -1.24437,-0.55087 -0.04968,-0.0023 -0.09773,-0.0031 -0.14418,-0.0026 z m -4.87154,1.37511 c -0.05514,0.0012 -0.10918,0.0053 -0.16174,0.01189 -0.28035,0.03522 -0.52152,0.14332 -0.70125,0.27388 -0.35946,0.26113 -0.53537,0.60152 -0.53537,0.60152 a 0.34999999,0.34999999 0 0 0 0.14883,0.47232 0.34999999,0.34999999 0 0 0 0.47232,-0.14625 c 0,0 0.11242,-0.2092 0.32453,-0.36328 0.21211,-0.15408 0.4633,-0.26455 0.92759,-0.04496 a 0.34999999,0.34999999 0 0 0 0.46457,-0.16588 0.34999999,0.34999999 0 0 0 -0.16588,-0.46716 c -0.2731,-0.12916 -0.53463,-0.17742 -0.7736,-0.17208 z m 6.68538,1.34359 c -0.02179,-4.6e-4 -0.04314,-3.1e-4 -0.06407,5.2e-4 -0.33494,0.01323 -0.57981,0.16433 -0.57981,0.16433 a 0.34999999,0.34999999 0 0 0 -0.11524,0.48007 0.34999999,0.34999999 0 0 0 0.48214,0.11524 c 0,0 0.09265,-0.05462 0.24029,-0.06046 0.14764,-0.0058 0.3234,0.01486 0.55294,0.31471 a 0.34999999,0.34999999 0 0 0 0.48989,0.06408 0.34999999,0.34999999 0 0 0 0.0646,-0.4899 c -0.32579,-0.42557 -0.74378,-0.58166 -1.07074,-0.58859 z m -11.26029,0.16691 c -0.15325,-0.0012 -0.29271,0.03707 -0.39946,0.07959 -0.18979,0.07559 -0.32401,0.1819 -0.32401,0.1819 a 0.34999999,0.34999999 0 0 0 -0.05684,0.49196 0.34999999,0.34999999 0 0 0 0.49041,0.05891 c 0,0 0.06107,-0.04741 0.14831,-0.08217 0.0873,-0.03476 0.15393,-0.03889 0.19533,-0.01757 a 0.34999999,0.34999999 0 0 0 0.47078,-0.15038 0.34999999,0.34999999 0 0 0 -0.15038,-0.47077 c -0.12732,-0.06558 -0.25495,-0.09052 -0.37414,-0.09147 z m 7.12773,0.2558 c -0.05086,6.5e-4 -0.10132,0.0036 -0.15038,0.0093 -0.26164,0.03047 -0.49491,0.13002 -0.67179,0.2465 -0.35378,0.23296 -0.55862,0.53692 -0.55862,0.53692 a 0.34999999,0.34999999 0 0 0 0.09198,0.48627 0.34999999,0.34999999 0 0 0 0.48628,-0.09198 c 0,0 0.14257,-0.20057 0.36535,-0.34727 0.22278,-0.1467 0.44968,-0.23804 0.79271,-0.05116 a 0.34999999,0.34999999 0 0 0 0.47491,-0.13849 0.34999999,0.34999999 0 0 0 -0.13901,-0.47646 c -0.2358,-0.12846 -0.47102,-0.17644 -0.69143,-0.17363 z m -11.62926,1.27331 c 0.07217,0.0026 0.14873,0.01315 0.22996,0.03204 0.49396,0.11486 0.99223,0.22031 1.49293,0.31988 a 0.34999999,0.34999999 0 0 0 0.0041,0.0015 0.34999999,0.34999999 0 0 0 0.0026,-5.2e-4 c 6.74858,1.34094 14.0717,1.28851 20.98683,-0.32091 0.32488,-0.0756 0.5774,-0.01304 0.75551,0.12506 0.17812,0.13814 0.29921,0.36051 0.29921,0.69143 v 3.79873 c 0,0.66184 -0.57658,1.41174 -1.21285,1.56063 -7.29202,1.70628 -14.92214,1.67781 -22.07204,0.02119 a 0.34999999,0.34999999 0 0 0 -0.12816,-0.03979 0.34999999,0.34999999 0 0 0 -0.0155,0.0026 c -0.61774,-0.17326 -1.16737,-0.8988 -1.16737,-1.54461 v -3.79873 c 0,-0.33092 0.12056,-0.55326 0.29869,-0.69143 0.1336,-0.10362 0.30954,-0.16495 0.52607,-0.1571 z m 22.37176,6.96495 c 0.68312,7.06562 0.91424,14.02253 -1.88671,20.56619 a 0.34999999,0.34999999 0 0 0 0.18345,0.45888 0.34999999,0.34999999 0 0 0 0.45889,-0.18345 c 0.31386,-0.73326 0.58854,-1.47118 0.83147,-2.21278 l 0.493,0.94516 c 0.33225,0.63741 0.34197,1.25728 0.11885,1.75183 -0.22312,0.49455 -0.68124,0.87938 -1.38079,1.02164 -6.44209,1.31004 -13.10526,1.28672 -19.43551,0 -0.69987,-0.14226 -1.1509,-0.52509 -1.36891,-1.01544 -0.218,-0.49036 -0.20499,-1.10448 0.13436,-1.7384 l 0.52245,-0.97565 c 0.24379,0.74528 0.51969,1.4868 0.83509,2.22364 a 0.34999999,0.34999999 0 0 0 0.46095,0.18345 0.34999999,0.34999999 0 0 0 0.18346,-0.45888 c -2.79918,-6.53952 -2.56986,-13.49175 -1.88774,-20.55276 7.05364,1.58626 14.54719,1.61393 21.73769,-0.01343 z m -10.5668,5.31234 a 0.35003499,0.35003499 0 0 0 -0.30076,0.16794 c -0.57583,0.95656 -1.45309,1.41782 -2.31045,2.04277 -0.73416,0.53516 -1.43507,1.22955 -1.73116,2.41226 -0.38471,-0.37096 -0.74244,-0.8001 -1.05368,-1.31103 a 0.35003499,0.35003499 0 0 0 -0.36897,-0.16175 h -5.2e-4 a 0.35003499,0.35003499 0 0 0 -0.2558,0.21291 c -1.31268,3.25355 -1.34986,5.82431 -0.20877,7.67602 0.84928,1.37815 2.5251,2.08453 3.93929,2.34921 0.70725,0.1324 1.3444,0.15309 1.81075,0.07441 0.07065,-0.01194 0.13353,-0.02523 0.19327,-0.03979 v 2.01073 a 0.34999999,0.34999999 0 0 0 0.34933,0.3514 0.34999999,0.34999999 0 0 0 0.34985,-0.3514 v -2.04225 c 0.06661,0.01724 0.13698,0.03248 0.21704,0.04599 0.4664,0.0787 1.10299,0.0584 1.81022,-0.0739 1.41417,-0.26469 3.09048,-0.97149 3.93982,-2.34973 1.14113,-1.85177 1.10182,-4.42251 -0.21084,-7.67601 a 0.35003499,0.35003499 0 0 0 -0.23875,-0.20878 0.35003499,0.35003499 0 0 0 -0.38447,0.15813 c -0.3452,0.56667 -0.74781,1.03181 -1.18081,1.42937 -0.28159,-1.24077 -1.00137,-1.95649 -1.75493,-2.50579 -0.85736,-0.62495 -1.73462,-1.08621 -2.31045,-2.04277 a 0.35003499,0.35003499 0 0 0 -0.29921,-0.16794 z m 0,0.86144 c 0.66394,0.87194 1.49749,1.40555 2.19728,1.91565 0.77844,0.56743 1.37487,1.14096 1.54668,2.45308 -0.21651,0.16149 -0.43764,0.3108 -0.65991,0.45113 -0.9886,0.62418 -1.99298,1.12043 -2.69493,1.9203 -0.13126,0.14958 -0.23734,0.30368 -0.32194,0.46044 -0.08229,-0.14806 -0.18276,-0.29411 -0.30696,-0.43564 -0.70193,-0.79984 -1.70682,-1.29559 -2.69544,-1.91978 -0.27041,-0.17072 -0.53741,-0.35706 -0.7984,-0.56017 0.18584,-1.25333 0.77301,-1.81408 1.53479,-2.36936 0.70002,-0.51026 1.53482,-1.04319 2.19883,-1.91565 z m 5.66994,3.36672 c 0.98967,2.78213 1.02357,4.94171 0.11369,6.41821 -0.68315,1.10856 -2.18818,1.78686 -3.47266,2.02727 -0.6421,0.12019 -1.234,0.13059 -1.56683,0.07441 -0.0902,-0.01519 -0.09171,-0.02117 -0.13642,-0.03927 0.32547,-0.97042 0.14012,-1.89468 -0.0041,-2.64066 -0.0793,-0.41007 -0.13127,-0.77169 -0.09973,-1.08986 0.0315,-0.31816 0.13304,-0.59976 0.41031,-0.91571 0.57198,-0.65177 1.52017,-1.14325 2.54299,-1.78904 0.77975,-0.49229 1.54396,-1.17752 2.21279,-2.04535 z m -11.19105,0.02584 c 0.3467,0.44983 0.71905,0.84926 1.10588,1.19941 a 0.34999999,0.34999999 0 0 0 0.19223,0.16846 c 0.29924,0.25504 0.60561,0.48183 0.91468,0.67697 1.0228,0.64577 1.97098,1.13722 2.54299,1.78903 0.27726,0.31595 0.37879,0.59755 0.41031,0.91571 0.0315,0.31817 -0.02053,0.67979 -0.09973,1.08986 -0.14419,0.74604 -0.32953,1.67027 -0.0041,2.64066 -0.0447,0.0181 -0.0463,0.02398 -0.13642,0.03928 -0.33286,0.0562 -0.92474,0.04578 -1.56683,-0.07442 -1.28445,-0.2404 -2.78947,-0.91864 -3.47266,-2.02726 -0.90992,-1.47659 -0.87585,-3.63561 0.11369,-6.4177 z m 5.59707,6.8094 c 0.05945,0.39663 0.08172,0.78789 -0.0041,1.18029 -0.08161,-0.39223 -0.05648,-0.78358 0.0041,-1.18029 z m 0.5023,1.82728 c -1.1e-4,0.01 0.0031,0.01929 0.0021,0.02739 -0.005,0.0372 -0.01364,0.05104 -0.01344,0.05064 l -0.0021,0.0041 c 0.0127,-0.0283 0.0017,-0.05397 0.01344,-0.08217 z" /></g></svg>
