<?xml version="1.0" encoding="UTF-8" standalone="no"?>
<!-- Created with Inkscape (http://www.inkscape.org/) -->

<svg
   width="32.828556"
   height="35.196404"
   viewBox="0 0 32.828556 35.196404"
   version="1.1"
   id="svg1"
   xml:space="preserve"
   inkscape:version="1.3.2 (1:1.3.2+202311252150+091e20ef0f)"
   sodipodi:docname="iconteknologipertanian.svg"
   xmlns:inkscape="http://www.inkscape.org/namespaces/inkscape"
   xmlns:sodipodi="http://sodipodi.sourceforge.net/DTD/sodipodi-0.dtd"
   xmlns="http://www.w3.org/2000/svg"
   xmlns:svg="http://www.w3.org/2000/svg"><sodipodi:namedview
     id="namedview1"
     pagecolor="#ffffff"
     bordercolor="#000000"
     borderopacity="0.25"
     inkscape:showpageshadow="2"
     inkscape:pageopacity="0.0"
     inkscape:pagecheckerboard="0"
     inkscape:deskcolor="#d1d1d1"
     inkscape:document-units="mm"
     inkscape:zoom="0.35355339"
     inkscape:cx="32.526912"
     inkscape:cy="492.14632"
     inkscape:window-width="1366"
     inkscape:window-height="717"
     inkscape:window-x="0"
     inkscape:window-y="23"
     inkscape:window-maximized="1"
     inkscape:current-layer="layer1"
     showgrid="false" /><defs
     id="defs1"><inkscape:path-effect
       effect="bend_path"
       id="path-effect20"
       is_visible="true"
       lpeversion="1"
       bendpath="m 172.02279,145.32246 c 3.05139,0.96673 5.60989,-0.13982 8.28258,-1.96112"
       prop_scale="1.0298994"
       scale_y_rel="false"
       vertical="false"
       hide_knot="false"
       bendpath-nodetypes="cc" /></defs><g
     inkscape:label="Layer 1"
     inkscape:groupmode="layer"
     id="layer1"
     transform="translate(-97.301523,-71.505713)"><path
       id="path13"
       style="color:#000000;fill:#000000;-inkscape-stroke:none"
       d="m 112.85719,71.505713 1.49449,0.699182 0.36535,1.265556 0.008,0.170015 -0.12867,1.593701 2.72231,0.429948 0.37104,-1.554943 0.0589,-0.15813 0.73794,-1.089856 0.92191,0.299206 -0.0429,1.316199 -0.045,0.162264 -0.61495,1.476396 2.45514,1.25212 0.83354,-1.365292 0.10594,-0.132808 1.0387,-0.808736 0.78341,0.570507 -0.44545,1.238168 -0.0956,0.14056 -1.04128,1.214913 1.94923,1.949235 1.21492,-1.04128 0.14056,-0.0956 1.23868,-0.445451 0.56999,0.783415 -0.80667,1.039213 -0.13487,0.10542 -1.36478,0.831991 0.60307,1.185457 c -0.71912,0.803551 -1.43946,1.523342 -2.16163,2.202966 -1.60025,-3.971229 -5.4036,-6.642659 -9.72085,-6.644555 -4.3457,0.009 -8.16366,2.721103 -9.73843,6.732405 -0.73072,-0.682377 -1.45843,-1.403357 -2.18539,-2.210718 l 0.6444,-1.265555 -1.36529,-0.831991 -0.13281,-0.10542 -0.80873,-1.039213 0.57051,-0.783415 1.23816,0.445451 0.14056,0.0956 1.21492,1.04128 1.94923,-1.949235 -1.04076,-1.214913 -0.0956,-0.14056 -0.44546,-1.238168 0.7829,-0.570507 1.03922,0.808736 0.10542,0.132808 0.83199,1.365292 2.45721,-1.25212 -0.61547,-1.476396 -0.045,-0.162264 -0.0429,-1.316199 0.91984,-0.299206 0.74053,1.089856 0.0584,0.15813 0.37104,1.554943 2.72283,-0.429948 -0.12867,-1.593701 0.008,-0.170015 0.43925,-1.51722 -0.3359,0.251664 z m 0,0 -0.0739,0.252181 -0.46302,1.599385 -0.0119,0.29714 0.0801,0.99012 -1.44332,0.22841 -0.22841,-0.966866 -0.10336,-0.276986 -1.0821,-1.595768 -1.92185,0.622701 0.0625,1.928048 0.0801,0.285254 0.38292,0.917773 -1.30276,0.661975 -0.51573,-0.847493 -0.18345,-0.232544 -1.52342,-1.18339 -1.63505,1.187524 0.65423,1.81436 0.16639,0.245979 0.64648,0.75396 -1.03353,1.033011 -0.75396,-0.646472 -0.24598,-0.165881 -1.81436,-0.654224 -1.187525,1.634526 1.183395,1.523421 0.23461,0.183968 0.84542,0.515731 -0.57205,1.124996 0.15812,0.179317 c 0.90626,1.020888 1.8131,1.922863 2.72284,2.753837 l 0.39635,0.363286 0.17209,-0.511597 c 1.34173,-4.011655 5.09028,-6.71592 9.32036,-6.724654 4.20278,0.0018 7.93899,2.667533 9.30847,6.640938 l 0.17364,0.505912 0.3948,-0.363285 c 0.90063,-0.828356 1.79656,-1.729998 2.69338,-2.746086 l 0.15813,-0.179834 -0.53123,-1.04283 0.84749,-0.515731 0.23254,-0.183968 1.18339,-1.523421 -1.18752,-1.634526 -1.81436,0.654224 -0.24598,0.165881 -0.75396,0.646472 -1.03301,-1.033011 0.64647,-0.75396 0.16588,-0.245979 0.65423,-1.81436 -1.63453,-1.187524 -1.52342,1.18339 -0.18397,0.234611 -0.51573,0.845426 -1.30225,-0.661975 0.38086,-0.916223 0.0816,-0.286804 0.0625,-1.928048 -1.92185,-0.622701 -1.0821,1.595768 -0.10336,0.276986 -0.23047,0.966866 -1.44126,-0.22841 0.0801,-0.99012 -0.0119,-0.29714 -0.53691,-1.851566 z m -12.8142,11.461316 a 0.35003499,0.35003499 0 0 0 -0.326079,0.220658 c -3.09709,7.676296 -3.149546,13.620551 -0.537435,17.859373 1.909344,3.09837 5.787754,4.76286 9.068694,5.37693 1.64061,0.30706 3.12726,0.34978 4.14652,0.17777 0.51493,-0.0869 0.87984,-0.21184 1.13068,-0.41444 0.0828,-0.0669 0.14895,-0.14923 0.19017,-0.22996 0.0412,0.0808 0.10779,0.16299 0.19069,0.22996 0.25084,0.2026 0.61781,0.32754 1.13274,0.41444 1.01926,0.17201 2.50591,0.12929 4.14652,-0.17777 3.28094,-0.61407 7.15729,-2.27856 9.06663,-5.37693 2.61212,-4.238822 2.55966,-10.183077 -0.53743,-17.859373 a 0.35003499,0.35003499 0 0 0 -0.32402,-0.220658 0.35003499,0.35003499 0 0 0 -0.29869,0.167948 c -1.64544,2.701062 -3.82298,4.476005 -6.0234,5.865275 -2.37999,1.502645 -4.73533,2.684104 -6.31848,4.488098 -0.50184,0.571847 -0.83223,1.158211 -1.03404,1.751831 -0.20181,-0.593679 -0.53268,-1.179929 -1.03457,-1.751831 -1.58322,-1.803954 -3.93797,-2.985453 -6.31796,-4.488098 -2.20041,-1.38927 -4.37641,-3.164213 -6.02185,-5.865275 a 0.35003499,0.35003499 0 0 0 -0.29869,-0.167948 z m 0.13487,1.064018 c 1.66393,2.479352 3.728,4.244775 5.81257,5.5609 2.41419,1.52423 4.7128,2.701399 6.16603,4.357357 0.72135,0.821977 1.01402,1.611646 1.09761,2.455147 0.0836,0.843501 -0.0558,1.747236 -0.2465,2.734201 -0.37405,1.935448 -0.9489,4.178868 0.0413,6.515878 -0.0694,0.0468 -0.35395,0.18688 -0.77153,0.25735 -0.88564,0.14946 -2.32504,0.11762 -3.90053,-0.17725 -3.1512,-0.5898 -6.8583,-2.22615 -8.601545,-5.05499 -2.389329,-3.877296 -2.403211,-9.392515 0.402555,-16.648593 z m 27.07587,0 c 2.80601,7.256377 2.79196,12.77119 0.40256,16.648593 -1.74325,2.82884 -5.44827,4.46519 -8.59947,5.05499 -1.57549,0.29487 -3.01488,0.32671 -3.90054,0.17725 -0.41762,-0.0705 -0.70425,-0.21061 -0.7736,-0.25735 0.99027,-2.33702 0.41691,-4.58042 0.0429,-6.515878 -0.19074,-0.986965 -0.33162,-1.8907 -0.24804,-2.734201 0.0836,-0.843501 0.37833,-1.63317 1.09967,-2.455147 1.45324,-1.655958 3.7503,-2.833127 6.16448,-4.357357 2.08431,-1.315963 4.14821,-3.08205 5.81205,-5.5609 z m -26.33948,3.900537 a 0.34999999,0.34999999 0 0 0 -0.25993,0.421679 c 0.38978,1.642075 0.95685,3.19679 1.62419,4.649329 l -1.99936,-1.682068 a 0.34999999,0.34999999 0 0 0 -0.494026,0.04289 0.34999999,0.34999999 0 0 0 0.04289,0.494026 l 3.230296,2.71508 c 1.13269,2.118633 2.44501,3.973506 3.67833,5.48907 l -3.90674,-0.95808 a 0.34999999,0.34999999 0 0 0 -0.42168,0.255798 0.34999999,0.34999999 0 0 0 0.2558,0.423747 l 4.80074,1.177705 a 0.35003499,0.35003499 0 0 0 0.0274,0 c 1.98207,2.28949 3.58582,3.60185 3.58582,3.60185 a 0.34999999,0.34999999 0 0 0 0.49248,-0.0491 0.34999999,0.34999999 0 0 0 -0.0491,-0.49196 c 0,0 -1.58088,-1.30512 -3.52899,-3.56464 l 2.24018,-5.533 a 0.34999999,0.34999999 0 0 0 -0.19172,-0.45527 0.34999999,0.34999999 0 0 0 -0.45682,0.19327 l -2.10168,5.190381 c -1.26226,-1.526462 -2.62616,-3.420792 -3.79409,-5.597591 l 1.4857,-3.54552 a 0.34999999,0.34999999 0 0 0 -0.18758,-0.459404 0.34999999,0.34999999 0 0 0 -0.26769,0 0.34999999,0.34999999 0 0 0 -0.18913,0.187586 l -1.25987,3.007051 c -0.80519,-1.62117 -1.48947,-3.381281 -1.93374,-5.252909 a 0.34999999,0.34999999 0 0 0 -0.42168,-0.259932 z m 25.78086,0 a 0.34999999,0.34999999 0 0 0 -0.42168,0.259932 c -0.44413,1.871028 -1.12785,3.630618 -1.9327,5.251359 l -1.25884,-3.005501 a 0.34999999,0.34999999 0 0 0 -0.45888,-0.187586 0.34999999,0.34999999 0 0 0 -0.18759,0.459404 l 1.4857,3.546037 c -1.1675,2.175914 -2.53122,4.069423 -3.79305,5.595524 l -2.10272,-5.188831 a 0.34999999,0.34999999 0 0 0 -0.45527,-0.19327 0.34999999,0.34999999 0 0 0 -0.19327,0.45527 l 2.24173,5.531448 c -1.94875,2.26052 -3.53054,3.56619 -3.53054,3.56619 a 0.34999999,0.34999999 0 0 0 -0.0491,0.49196 0.34999999,0.34999999 0 0 0 0.49248,0.0491 c 0,0 1.60375,-1.31236 3.58583,-3.60185 a 0.35003499,0.35003499 0 0 0 0.0274,0 l 4.80075,-1.177703 a 0.34999999,0.34999999 0 0 0 0.25786,-0.423747 0.34999999,0.34999999 0 0 0 -0.42375,-0.255798 l -3.90725,0.958598 c 1.23296,-1.515062 2.54528,-3.36917 3.67781,-5.487004 l 3.23133,-2.717664 a 0.34999999,0.34999999 0 0 0 0.0429,-0.494026 0.34999999,0.34999999 0 0 0 -0.49196,-0.04289 l -2.00246,1.684135 c 0.66776,-1.453138 1.23525,-3.008529 1.62522,-4.651396 a 0.34999999,0.34999999 0 0 0 -0.25993,-0.421679 z m -12.97854,11.221537 c 0.008,0.03965 0.014,0.07859 0.0217,0.118339 0.38776,2.00639 0.94103,4.07973 -0.014,6.21512 -0.004,0.008 -0.005,0.0175 -0.008,0.0258 -0.003,-0.008 -0.005,-0.0184 -0.009,-0.0264 -0.95496,-2.1354 -0.39966,-4.20822 -0.0119,-6.21461 0.008,-0.03972 0.0136,-0.07872 0.0212,-0.118339 z" /></g></svg>
