<?xml version="1.0" encoding="UTF-8" standalone="no"?>
<!-- Created with Inkscape (http://www.inkscape.org/) -->

<svg
   width="35.758602"
   height="43.854626"
   viewBox="0 0 35.758602 43.854626"
   version="1.1"
   id="svg1"
   xml:space="preserve"
   inkscape:version="1.3.2 (1:1.3.2+202311252150+091e20ef0f)"
   sodipodi:docname="iconcocoktanam.svg"
   xmlns:inkscape="http://www.inkscape.org/namespaces/inkscape"
   xmlns:sodipodi="http://sodipodi.sourceforge.net/DTD/sodipodi-0.dtd"
   xmlns="http://www.w3.org/2000/svg"
   xmlns:svg="http://www.w3.org/2000/svg"><sodipodi:namedview
     id="namedview1"
     pagecolor="#ffffff"
     bordercolor="#000000"
     borderopacity="0.25"
     inkscape:showpageshadow="2"
     inkscape:pageopacity="0.0"
     inkscape:pagecheckerboard="0"
     inkscape:deskcolor="#d1d1d1"
     inkscape:document-units="px"
     inkscape:zoom="5.6568542"
     inkscape:cx="8.5736697"
     inkscape:cy="27.753941"
     inkscape:window-width="1366"
     inkscape:window-height="717"
     inkscape:window-x="0"
     inkscape:window-y="23"
     inkscape:window-maximized="1"
     inkscape:current-layer="layer1" /><defs
     id="defs1"><inkscape:path-effect
       effect="bend_path"
       id="path-effect20"
       is_visible="true"
       lpeversion="1"
       bendpath="m 172.02279,145.32246 c 3.05139,0.96673 5.60989,-0.13982 8.28258,-1.96112"
       prop_scale="1.0298994"
       scale_y_rel="false"
       vertical="false"
       hide_knot="false"
       bendpath-nodetypes="cc" /></defs><g
     inkscape:label="Layer 1"
     inkscape:groupmode="layer"
     id="layer1"
     transform="translate(-146.22428,-70.708245)"><path
       id="path2"
       style="color:#000000;fill:#1a1a1a;stroke-linecap:round;stroke-linejoin:round;-inkscape-stroke:none;paint-order:stroke fill markers"
       d="m 154.96677,70.710929 a 0.34999999,0.34999999 0 0 0 -0.39068,0.304891 0.34999999,0.34999999 0 0 0 0.3049,0.390674 c 0,0 2.48891,0.28554 4.57026,3.136243 a 0.34999999,0.34999999 0 0 0 0.48834,0.07648 0.34999999,0.34999999 0 0 0 0.076,-0.488342 c -2.22824,-3.051903 -5.04879,-3.419946 -5.04879,-3.419947 z m -1.70687,1.728577 a 0.34999999,0.34999999 0 0 0 -0.39068,0.304891 0.34999999,0.34999999 0 0 0 0.30438,0.390157 c 0,0 0.6598,0.07807 1.61747,0.564823 a 0.34999999,0.34999999 0 0 0 0.47077,-0.152445 0.34999999,0.34999999 0 0 0 -0.15451,-0.470772 c -1.05001,-0.533687 -1.84743,-0.636654 -1.84743,-0.636654 z m -1.77561,1.576131 a 0.34999999,0.34999999 0 0 0 -0.39067,0.304891 0.34999999,0.34999999 0 0 0 0.30489,0.390157 c 0,0 0.83375,0.100295 1.97249,0.760161 0.40564,0.23505 0.8457,0.5404 1.29294,0.93741 a 0.34999999,0.34999999 0 0 0 0.49403,-0.02946 0.34999999,0.34999999 0 0 0 -0.0289,-0.494026 c -0.48442,-0.430014 -0.96331,-0.764753 -1.40663,-1.021643 -1.24457,-0.721186 -2.2381,-0.847494 -2.23811,-0.847494 z m 5.15318,0.19172 a 0.34999999,0.34999999 0 0 0 -0.24081,0.116789 0.34999999,0.34999999 0 0 0 0.031,0.494026 c 0.83666,0.739439 1.69966,1.798367 2.40812,3.322278 a 0.34999999,0.34999999 0 0 0 0.46509,0.170015 0.34999999,0.34999999 0 0 0 0.17002,-0.464571 c -0.74803,-1.609036 -1.67392,-2.750226 -2.58021,-3.551204 a 0.34999999,0.34999999 0 0 0 -0.25321,-0.08733 z m 3.76979,0.901237 a 0.34999999,0.34999999 0 0 0 -0.1297,0.04186 0.34999999,0.34999999 0 0 0 -0.13488,0.476456 c 0.13768,0.246665 0.27196,0.508498 0.40049,0.784965 a 0.34999999,0.34999999 0 0 0 0.46457,0.170016 0.34999999,0.34999999 0 0 0 0.17002,-0.464571 c -0.13571,-0.291913 -0.27758,-0.570102 -0.42375,-0.831991 a 0.34999999,0.34999999 0 0 0 -0.21084,-0.166398 0.34999999,0.34999999 0 0 0 -0.13591,-0.01033 z m -4.29948,1.94045 a 0.34999999,0.34999999 0 0 0 -0.25838,0.07028 0.34999999,0.34999999 0 0 0 -0.0605,0.491959 c 0.45021,0.578745 0.88444,1.27219 1.27176,2.105298 a 0.34999999,0.34999999 0 0 0 0.46457,0.170016 0.34999999,0.34999999 0 0 0 0.17001,-0.464571 c -0.40894,-0.879643 -0.87257,-1.619403 -1.35547,-2.240174 a 0.34999999,0.34999999 0 0 0 -0.23203,-0.132808 z m 8.11682,0.454752 a 0.35003499,0.35003499 0 0 0 -0.28887,0.150379 c 0,0 -4.8827,6.989528 -6.93653,12.163598 -0.38199,-0.230661 -0.76542,-0.464059 -1.14928,-0.706416 -2.36088,-1.49058 -4.69836,-3.264534 -6.32623,-6.269385 a 0.35003499,0.35003499 0 0 0 -0.32608,-0.183968 h -5.2e-4 a 0.35003499,0.35003499 0 0 0 -0.30437,0.214974 c -3.3765,8.040374 -3.47398,14.288949 -0.7152,18.765782 1.98989,3.22905 5.95976,4.91144 9.30279,5.53713 1.67151,0.31285 3.18718,0.36248 4.26951,0.17983 0.54116,-0.0913 0.97741,-0.23195 1.29294,-0.48679 0.15776,-0.12742 0.28875,-0.29377 0.34417,-0.49609 0.0554,-0.20233 0.0268,-0.4228 -0.061,-0.61909 -0.8997,-2.01179 -0.38056,-3.98651 0.0103,-6.0079 0.39066,-2.021396 0.61877,-4.130404 -1.09192,-6.079733 -1.23576,-1.408158 -2.89054,-2.429289 -4.63796,-3.481958 1.85713,-4.751201 6.13475,-10.988853 6.61252,-11.681974 0.46757,0.697077 4.60126,6.891971 6.42286,11.658203 -1.76234,1.060998 -3.43382,2.087091 -4.67878,3.505729 -1.71069,1.949328 -1.48259,4.058337 -1.09193,6.079733 0.39067,2.02139 0.90929,3.99611 0.01,6.0079 -0.0878,0.19629 -0.11582,0.41676 -0.0605,0.61909 0.0554,0.20232 0.18589,0.36867 0.34365,0.49609 0.31553,0.25485 0.75178,0.39546 1.29294,0.48679 1.08233,0.18265 2.598,0.13302 4.26951,-0.17983 3.34303,-0.62569 7.31292,-2.30808 9.30279,-5.53713 2.7588,-4.476833 2.66181,-10.725408 -0.71468,-18.765782 a 0.35003499,0.35003499 0 0 0 -0.30489,-0.214974 0.35003499,0.35003499 0 0 0 -0.32608,0.183968 c -1.62787,3.004851 -3.96329,4.778805 -6.32416,6.269385 -0.37043,0.233872 -0.74062,0.459286 -1.1095,0.682129 -2.01377,-5.186968 -6.73654,-12.135177 -6.73654,-12.135177 a 0.35003499,0.35003499 0 0 0 -0.28887,-0.154513 z m -0.1173,5.615162 a 0.34999999,0.34999999 0 0 0 -0.34934,0.349849 v 5.208984 l -2.45153,-2.495971 a 0.34999999,0.34999999 0 0 0 -0.49402,-0.0062 0.34999999,0.34999999 0 0 0 -0.006,0.496094 l 2.95124,3.005502 v 22.457544 a 0.34999999,0.34999999 0 0 0 0.34934,0.34985 0.34999999,0.34999999 0 0 0 0.34985,-0.34985 V 89.739742 a 0.34999999,0.34999999 0 0 0 0,-0.328662 v -0.487826 l 2.28306,-2.146122 a 0.34999999,0.34999999 0 0 0 0.0155,-0.494027 0.34999999,0.34999999 0 0 0 -0.49609,-0.0155 l -1.80247,1.69602 v -4.494816 a 0.34999999,0.34999999 0 0 0 -0.34985,-0.349849 z m -14.76758,0.607714 c 1.68147,2.760203 3.90885,4.572914 6.13503,5.978447 2.39709,1.51344 4.7238,2.691972 6.24199,4.421952 1.53016,1.743623 1.3159,3.498168 0.93173,5.48597 -0.38417,1.987809 -0.97272,4.167669 0.0372,6.425969 0.0365,0.0815 0.034,0.11638 0.0253,0.14831 -0.009,0.0319 -0.0328,0.0766 -0.10749,0.13694 -0.14937,0.12064 -0.49424,0.26121 -0.97048,0.34158 -0.95246,0.16073 -2.41548,0.1232 -4.02353,-0.17777 -3.21608,-0.60194 -7.00778,-2.25312 -8.83408,-5.21673 -2.53432,-4.112577 -2.50993,-9.925035 0.5643,-17.544668 z m 29.5274,0 c 3.07423,7.619633 3.10071,13.432092 0.56637,17.544668 -1.82629,2.96361 -5.61955,4.61479 -8.83563,5.21673 -1.60805,0.30097 -3.07106,0.3385 -4.02353,0.17777 -0.47624,-0.0804 -0.82164,-0.22094 -0.971,-0.34158 -0.0747,-0.0603 -0.0988,-0.10502 -0.10749,-0.13694 -0.009,-0.0319 -0.0107,-0.0668 0.0258,-0.14831 1.00995,-2.2583 0.42087,-4.43816 0.0367,-6.425969 -0.38417,-1.987802 -0.59844,-3.742347 0.93173,-5.48597 1.51819,-1.72998 3.84543,-2.908512 6.24251,-4.421952 2.22618,-1.405533 4.45304,-3.218245 6.13451,-5.978447 z m -28.24066,5.942273 a 0.34999999,0.34999999 0 0 0 -0.17931,0.02274 v -5.17e-4 a 0.34999999,0.34999999 0 0 0 -0.19327,0.457337 c 0.56229,1.379727 1.16646,2.740414 1.82573,4.075203 l -3.51917,-0.963765 a 0.34999999,0.34999999 0 0 0 -0.4315,0.245979 0.34999999,0.34999999 0 0 0 0.24598,0.429432 l 4.13153,1.130163 c 1.22692,2.373516 2.64445,4.65635 4.35271,6.796483 l -0.84749,-0.23875 a 0.34999999,0.34999999 0 0 0 -0.4315,0.23978 0.34999999,0.34999999 0 0 0 0.24184,0.43202 l 1.81075,0.51159 a 0.34999999,0.34999999 0 0 0 0.009,0.002 c 0.92284,1.07742 1.92542,2.1157 3.02049,3.10783 a 0.34999999,0.34999999 0 0 0 0.49402,-0.0233 0.34999999,0.34999999 0 0 0 -0.0232,-0.49609 c -1.40845,-1.27606 -2.66073,-2.63066 -3.78685,-4.04937 a 0.34999999,0.34999999 0 0 0 0.0155,-0.0346 l 1.41594,-6.289021 a 0.34999999,0.34999999 0 0 0 -0.26562,-0.418062 0.34999999,0.34999999 0 0 0 -0.41806,0.26355 l -1.29708,5.761923 c -1.4702,-1.951686 -2.71694,-4.017177 -3.80959,-6.163966 a 0.34999999,0.34999999 0 0 0 0.001,-0.0021 l 0.91622,-3.090251 a 0.34999999,0.34999999 0 0 0 -0.23616,-0.433565 0.34999999,0.34999999 0 0 0 -0.43563,0.234611 l -0.7028,2.369881 c -0.5812,-1.200079 -1.12162,-2.422026 -1.62729,-3.662825 a 0.34999999,0.34999999 0 0 0 -0.27596,-0.213941 z m 26.54774,0 a 0.34999999,0.34999999 0 0 0 -0.27595,0.213941 c -0.50582,1.241157 -1.0459,2.463447 -1.62729,3.663859 l -0.70435,-2.370915 a 0.34999999,0.34999999 0 0 0 -0.43357,-0.234611 0.34999999,0.34999999 0 0 0 -0.23668,0.433565 l 0.91623,3.090251 a 0.34999999,0.34999999 0 0 0 0.001,0.0026 c -1.09356,2.148504 -2.34193,4.215563 -3.81372,6.168615 l -0.54881,-2.352827 a 0.34999999,0.34999999 0 0 0 -0.41961,-0.262 0.34999999,0.34999999 0 0 0 -0.262,0.420129 l 0.66973,2.874768 a 0.34999999,0.34999999 0 0 0 0.0129,0.0341 c -1.12543,1.41749 -2.37693,2.77122 -3.78427,4.04627 a 0.34999999,0.34999999 0 0 0 -0.0253,0.49609 0.34999999,0.34999999 0 0 0 0.49403,0.0233 c 1.09535,-0.9924 2.09796,-2.03113 3.021,-3.10886 a 0.34999999,0.34999999 0 0 0 0.007,-5.2e-4 l 6.04459,-1.65209 a 0.34999999,0.34999999 0 0 0 0.24443,-0.43202 0.34999999,0.34999999 0 0 0 -0.42995,-0.24391 l -5.09064,1.39165 c 1.7112,-2.142513 3.13092,-4.428206 4.35942,-6.804759 l 4.1336,-1.130163 a 0.34999999,0.34999999 0 0 0 0.24443,-0.429432 0.34999999,0.34999999 0 0 0 -0.42995,-0.245979 l -3.52175,0.964799 c 0.65947,-1.335121 1.26382,-2.696153 1.82625,-4.076237 a 0.34999999,0.34999999 0 0 0 -0.1912,-0.457337 0.34999999,0.34999999 0 0 0 -0.17932,-0.02222 z m -7.82123,4.926831 a 0.34999999,0.34999999 0 0 0 -0.0775,0.01189 0.34999999,0.34999999 0 0 0 -0.24805,0.429431 l 0.40049,1.493966 a 0.34999999,0.34999999 0 0 0 0.42737,0.248047 0.34999999,0.34999999 0 0 0 0.24804,-0.427364 l -0.39997,-1.496033 a 0.34999999,0.34999999 0 0 0 -0.35037,-0.259933 z m -17.66404,5.869924 a 0.34999999,0.34999999 0 0 0 -0.34106,0.25477 0.34999999,0.34999999 0 0 0 0.24184,0.43201 l 2.66237,0.74776 a 0.34999999,0.34999999 0 0 0 0.4315,-0.24391 0.34999999,0.34999999 0 0 0 -0.24391,-0.42995 l -2.6603,-0.74776 a 0.34999999,0.34999999 0 0 0 -0.0904,-0.0129 z m 13.99398,9.22218 a 0.34999999,0.34999999 0 0 0 -0.25735,0.23616 0.34999999,0.34999999 0 0 0 0.22893,0.43925 c 1.02622,0.32317 1.87542,1.10149 2.06602,1.54099 a 0.35003499,0.35003499 0 0 0 0.42788,0.19327 c 1.32677,-0.42168 2.0687,0.10437 2.59003,0.76171 0.36366,0.45853 0.41253,0.73206 0.50591,1.00407 h -15.27969 c 0.0111,-0.0213 0.0113,-0.0303 0.0238,-0.0527 0.16059,-0.28728 0.43444,-0.66294 0.81804,-0.9803 0.76721,-0.63472 1.93325,-1.08607 3.75016,-0.27957 a 0.35003499,0.35003499 0 0 0 0.4687,-0.19533 c 0.25228,-0.6535 0.71285,-1.32354 1.6583,-1.79111 a 0.34999999,0.34999999 0 0 0 0.15813,-0.4687 0.34999999,0.34999999 0 0 0 -0.46871,-0.15813 c -0.99138,0.49028 -1.52811,1.21585 -1.85363,1.91978 -1.83943,-0.68457 -3.28673,-0.28717 -4.15788,0.43356 -0.4638,0.3837 -0.78549,0.82181 -0.98444,1.17771 -0.0995,0.17795 -0.16918,0.33278 -0.21136,0.46715 -0.0211,0.0672 -0.036,0.12604 -0.0408,0.20516 -0.002,0.0395 -0.005,0.0845 0.0176,0.15813 0.007,0.0235 0.0225,0.0534 0.0419,0.0842 a 0.35003499,0.35003499 0 0 0 0.009,0.0124 c 0.0286,0.0424 0.0667,0.0849 0.11782,0.11679 a 0.35003499,0.35003499 0 0 0 0.008,0.005 c 0.0216,0.0127 0.0443,0.0243 0.0698,0.032 l -0.0124,-0.017 a 0.35003499,0.35003499 0 0 0 0.1142,0.0305 h 16.3127 a 0.35003499,0.35003499 0 0 0 0.33951,-0.43564 c 0,0 -0.2226,-0.90349 -0.85524,-1.70118 -0.59097,-0.74515 -1.66277,-1.31801 -3.08405,-0.99219 -0.4029,-0.70611 -1.2392,-1.39177 -2.33991,-1.7384 a 0.34999999,0.34999999 0 0 0 -0.18035,-0.007 z" /></g></svg>
